<svg width="1200" height="800" viewBox="0 0 1200 800" fill="none" xmlns="http://www.w3.org/2000/svg">
  <rect width="1200" height="800" rx="36" fill="url(#bg)"/>
  <circle cx="218" cy="158" r="168" fill="#FFD7A8" fill-opacity="0.15"/>
  <circle cx="1012" cy="142" r="172" fill="#FFFFFF" fill-opacity="0.08"/>
  <circle cx="980" cy="664" r="196" fill="#FFB04F" fill-opacity="0.12"/>
  <rect x="115" y="76" width="970" height="648" rx="40" fill="#FFF7ED" fill-opacity="0.1" stroke="#FFFFFF" stroke-opacity="0.14" stroke-width="2"/>
  <text x="148" y="174" fill="#FFF8F1" font-family="Georgia, serif" font-size="74" font-weight="700">Burgify</text>
  <text x="151" y="220" fill="#FFE7CC" font-family="Arial, sans-serif" font-size="26" font-weight="500">Playful burger app UI/UX concept</text>
  <rect x="148" y="276" width="370" height="360" rx="34" fill="#FFFDF9"/>
  <rect x="543" y="214" width="226" height="422" rx="36" fill="#FFFDF9"/>
  <rect x="795" y="170" width="226" height="466" rx="36" fill="#FFFDF9"/>
  <rect x="181" y="307" width="304" height="68" rx="24" fill="#FFFFFF" stroke="#E5E7EB" stroke-width="2"/>
  <circle cx="218" cy="341" r="14" stroke="#111827" stroke-width="5"/>
  <line x1="228" y1="351" x2="241" y2="364" stroke="#111827" stroke-width="5" stroke-linecap="round"/>
  <rect x="399" y="314" width="52" height="52" rx="16" fill="#FF4B55"/>
  <rect x="186" y="410" width="127" height="168" rx="22" fill="#FFFFFF" stroke="#E5E7EB" stroke-width="2"/>
  <rect x="350" y="410" width="127" height="168" rx="22" fill="#FFFFFF" stroke="#E5E7EB" stroke-width="2"/>
  <ellipse cx="249" cy="470" rx="43" ry="17" fill="#F5D0A8"/>
  <path d="M211 458C211 437 228 420 249 420C270 420 287 437 287 458H211Z" fill="#D98B2B"/>
  <rect x="213" y="460" width="72" height="12" rx="6" fill="#4ADE80"/>
  <rect x="206" y="472" width="86" height="13" rx="6.5" fill="#7C2D12"/>
  <rect x="214" y="486" width="70" height="10" rx="5" fill="#FBBF24"/>
  <rect x="219" y="538" width="58" height="12" rx="6" fill="#111827" fill-opacity="0.88"/>
  <rect x="219" y="556" width="44" height="9" rx="4.5" fill="#6B7280"/>
  <ellipse cx="413" cy="470" rx="43" ry="17" fill="#F5D0A8"/>
  <path d="M375 458C375 437 392 420 413 420C434 420 451 437 451 458H375Z" fill="#D98B2B"/>
  <rect x="377" y="460" width="72" height="12" rx="6" fill="#4ADE80"/>
  <rect x="370" y="472" width="86" height="13" rx="6.5" fill="#7C2D12"/>
  <rect x="378" y="486" width="70" height="10" rx="5" fill="#FBBF24"/>
  <rect x="383" y="538" width="58" height="12" rx="6" fill="#111827" fill-opacity="0.88"/>
  <rect x="383" y="556" width="44" height="9" rx="4.5" fill="#6B7280"/>
  <rect x="573" y="250" width="166" height="250" rx="28" fill="url(#screen2)"/>
  <path d="M653 301C653 284 666 271 683 271C700 271 713 284 713 301H653Z" fill="#D98B2B"/>
  <rect x="661" y="299" width="44" height="11" rx="5.5" fill="#4ADE80"/>
  <rect x="655" y="311" width="56" height="12" rx="6" fill="#7C2D12"/>
  <rect x="662" y="324" width="42" height="10" rx="5" fill="#FBBF24"/>
  <rect x="580" y="365" width="120" height="10" rx="5" fill="#111827"/>
  <rect x="580" y="383" width="88" height="8" rx="4" fill="#6B7280"/>
  <rect x="580" y="430" width="72" height="62" rx="18" fill="#FFFFFF" fill-opacity="0.86"/>
  <rect x="660" y="430" width="72" height="62" rx="18" fill="#FFFFFF" fill-opacity="0.86"/>
  <rect x="590" y="516" width="132" height="42" rx="16" fill="#FF4B55"/>
  <rect x="825" y="208" width="166" height="390" rx="28" fill="url(#screen3)"/>
  <rect x="842" y="236" width="132" height="124" rx="22" fill="#FFFFFF"/>
  <path d="M859 309C859 289 875 273 895 273C915 273 931 289 931 309H859Z" fill="#D98B2B"/>
  <rect x="864" y="309" width="62" height="10" rx="5" fill="#4ADE80"/>
  <rect x="856" y="320" width="78" height="12" rx="6" fill="#7C2D12"/>
  <rect x="865" y="333" width="60" height="9" rx="4.5" fill="#FBBF24"/>
  <rect x="842" y="392" width="132" height="14" rx="7" fill="#FFFFFF" fill-opacity="0.86"/>
  <rect x="842" y="421" width="98" height="10" rx="5" fill="#FFE4C7"/>
  <rect x="842" y="462" width="52" height="52" rx="16" fill="#FFFFFF" fill-opacity="0.92"/>
  <rect x="902" y="462" width="52" height="52" rx="16" fill="#FFFFFF" fill-opacity="0.92"/>
  <rect x="842" y="537" width="132" height="38" rx="16" fill="#FF4B55"/>
  <defs>
    <linearGradient id="bg" x1="84" y1="56" x2="1112" y2="744" gradientUnits="userSpaceOnUse">
      <stop stop-color="#FF6B7A"/>
      <stop offset="1" stop-color="#FF3D47"/>
    </linearGradient>
    <linearGradient id="screen2" x1="573" y1="250" x2="739" y2="500" gradientUnits="userSpaceOnUse">
      <stop stop-color="#FFF7ED"/>
      <stop offset="1" stop-color="#FFE7CC"/>
    </linearGradient>
    <linearGradient id="screen3" x1="825" y1="208" x2="991" y2="598" gradientUnits="userSpaceOnUse">
      <stop stop-color="#FFF7ED"/>
      <stop offset="1" stop-color="#FFE0B2"/>
    </linearGradient>
  </defs>
</svg>
